<?xml version="1.0" encoding="UTF-8" standalone="no"?>
<svg
   width="410"
   height="404"
   viewBox="0 0 410 404"
   fill="none"
   version="1.1"
   id="svg20"
   xmlns="http://www.w3.org/2000/svg"
   xmlns:svg="http://www.w3.org/2000/svg">
  <defs
     id="defs18">
    <linearGradient
       id="paint0_linear"
       x1="6.00017"
       y1="32.9999"
       x2="235"
       y2="344"
       gradientUnits="userSpaceOnUse">
      <stop
         stop-color="#41D1FF"
         id="stop6" />
      <stop
         offset="1"
         stop-color="#BD34FE"
         id="stop8" />
    </linearGradient>
    <linearGradient
       id="paint1_linear"
       x1="194.651"
       y1="8.81818"
       x2="236.076"
       y2="292.989"
       gradientUnits="userSpaceOnUse">
      <stop
         stop-color="#FFEA83"
         id="stop11" />
      <stop
         offset="0.0833333"
         stop-color="#FFDD35"
         id="stop13" />
      <stop
         offset="1"
         stop-color="#FFA800"
         id="stop15" />
    </linearGradient>
  </defs>
  <text
     xml:space="preserve"
     style="font-size:40px;line-height:1.25;font-family:sans-serif;letter-spacing:0px;word-spacing:0px"
     x="111.44828"
     y="199.52837"
     id="text1771"><tspan
       id="tspan1769"
       x="111.44828"
       y="199.52837">💛</tspan></text>
  <path
     style="fill:#ffff3e;stroke:#ff9900;stroke-width:1px;stroke-linecap:butt;stroke-linejoin:miter;stroke-opacity:1"
     d="m 225.50112,102.13856 c 20.33372,-24.739339 62.25409,-73.043138 104.84577,-73.770118 42.59167,-0.726981 85.84816,46.121075 62.43794,117.862838 -23.41022,71.74176 -113.48546,168.37125 -158.30907,216.25721 -44.82362,47.88597 -44.0809,46.40071 -84.47951,-7.02415 C 109.59764,302.03949 28.2176,196.36786 15.707821,124.54344 3.1980428,52.719021 59.561888,14.751432 103.03594,21.175134 c 43.47405,6.423701 74.06428,57.250335 88.72457,82.063026 14.66029,24.81269 13.40689,23.63973 33.74061,-1.0996 z"
     id="path5515" />
</svg>
